HIERARCHY
ROOT Hips
{
	OFFSET 0.000000 0.000000 0.000000
	CHANNELS 6 Xposition Yposition Zposition Xrotation Yrotation Zrotation
	JOINT LeftUpLeg_virtual
	{
		OFFSET 0.000000 0.000000 0.000000
		CHANNELS 3 Xrotation Yrotation Zrotation
		JOINT LeftUpLeg
		{
			OFFSET 11.394100 -6.187798 -0.413800
			CHANNELS 3 Xrotation Yrotation Zrotation
			JOINT LeftLeg
			{
				OFFSET 0.430247 -32.302673 3.732800
				CHANNELS 3 Xrotation Yrotation Zrotation
				JOINT LeftFoot
				{
					OFFSET -0.430247 -48.264931 -6.423300
					CHANNELS 3 Xrotation Yrotation Zrotation
					JOINT LeftToeBase
					{
						OFFSET 4.230900 -16.068199 23.438400
						CHANNELS 3 Xrotation Yrotation Zrotation
						JOINT LeftToe_End
						{
							OFFSET 4.510700 0.695400 19.974600
							CHANNELS 3 Xrotation Yrotation Zrotation
							End Site
							{
								OFFSET 0 0 0
							}
						}
					}
				}
			}
		}
	}
	JOINT RightUpLeg_virtual
	{
		OFFSET 0.000000 0.000000 0.000000
		CHANNELS 3 Xrotation Yrotation Zrotation
		JOINT RightUpLeg
		{
			OFFSET -11.333700 -6.187798 -0.413800
			CHANNELS 3 Xrotation Yrotation Zrotation
			JOINT RightLeg
			{
				OFFSET -0.430392 -32.302628 3.733000
				CHANNELS 3 Xrotation Yrotation Zrotation
				JOINT RightFoot
				{
					OFFSET 0.430392 -48.264973 -6.423500
					CHANNELS 3 Xrotation Yrotation Zrotation
					JOINT RightToeBase
					{
						OFFSET -4.230900 -16.068199 23.438400
						CHANNELS 3 Xrotation Yrotation Zrotation
						JOINT RightToe_End
						{
							OFFSET -4.510700 0.695400 19.974600
							CHANNELS 3 Xrotation Yrotation Zrotation
							End Site
							{
								OFFSET 0 0 0
							}
						}
					}
				}
			}
		}
	}
	JOINT Spine_virtual
	{
		OFFSET 0.000000 0.000000 0.000000
		CHANNELS 3 Xrotation Yrotation Zrotation
		JOINT Spine
		{
			OFFSET -0.002400 12.777504 0.315300
			CHANNELS 3 Xrotation Yrotation Zrotation
			JOINT Spine1
			{
				OFFSET -0.002067 5.816869 0.032633
				CHANNELS 3 Xrotation Yrotation Zrotation
				JOINT Spine1_split
				{
					OFFSET -0.002067 5.816869 0.032633
					CHANNELS 3 Xrotation Yrotation Zrotation
					JOINT Spine2
					{
						OFFSET -0.002067 5.816869 0.032633
						CHANNELS 3 Xrotation Yrotation Zrotation
						JOINT Neck_virtual
						{
							OFFSET 0.000000 0.000000 0.000000
							CHANNELS 3 Xrotation Yrotation Zrotation
							JOINT Neck
							{
								OFFSET -0.003700 21.199493 -0.826900
								CHANNELS 3 Xrotation Yrotation Zrotation
								JOINT Head
								{
									OFFSET 0.000000 20.442200 4.834800
									CHANNELS 3 Xrotation Yrotation Zrotation
									JOINT HeadTop_End
									{
										OFFSET 0.000000 34.668396 4.968400
										CHANNELS 3 Xrotation Yrotation Zrotation
										End Site
										{
											OFFSET 0 0 0
										}
									}
								}
							}
						}
						JOINT LeftShoulder_virtual
						{
							OFFSET 0.000000 0.000000 0.000000
							CHANNELS 3 Xrotation Yrotation Zrotation
							JOINT LeftShoulder
							{
								OFFSET 3.288150 8.794197 -1.372250
								CHANNELS 3 Xrotation Yrotation Zrotation
								JOINT LeftShoulder_split
								{
									OFFSET 3.288150 8.794197 -1.372250
									CHANNELS 3 Xrotation Yrotation Zrotation
									JOINT LeftArm
									{
										OFFSET 11.953299 -2.279007 -0.146200
										CHANNELS 3 Xrotation Yrotation Zrotation
										JOINT LeftForeArm
										{
											OFFSET 18.448900 0.000000 0.000000
											CHANNELS 3 Xrotation Yrotation Zrotation
											JOINT LeftHand
											{
												OFFSET 29.527798 0.000000 0.000000
												CHANNELS 3 Xrotation Yrotation Zrotation
												End Site
												{
													OFFSET 0 0 0
												}
											}
										}
									}
								}
							}
						}
						JOINT RightShoulder_virtual
						{
							OFFSET 0.000000 0.000000 0.000000
							CHANNELS 3 Xrotation Yrotation Zrotation
							JOINT RightShoulder
							{
								OFFSET -3.249400 8.794197 -1.372250
								CHANNELS 3 Xrotation Yrotation Zrotation
								JOINT RightShoulder_split
								{
									OFFSET -3.249400 8.794197 -1.372250
									CHANNELS 3 Xrotation Yrotation Zrotation
									JOINT RightArm
									{
										OFFSET -11.953299 -2.279007 -0.146200
										CHANNELS 3 Xrotation Yrotation Zrotation
										JOINT RightForeArm
										{
											OFFSET -18.448900 0.000000 0.000000
											CHANNELS 3 Xrotation Yrotation Zrotation
											JOINT RightHand
											{
												OFFSET -29.527802 0.000000 0.000000
												CHANNELS 3 Xrotation Yrotation Zrotation
												End Site
												{
													OFFSET 0 0 0
												}
											}
										}
									}
								}
							}
						}
					}
				}
			}
		}
	}
}
MOTION
Frames: 8
Frame Time: 0.03333333
-8.890903 130.644272 -3.748325 0.000000 0.000000 0.000000 6.723484 -18.546853 2.803634 -167.572968 -32.540456 12.878865 124.569222 -19.013710 -8.389561 49.530261 -19.874437 -14.899160 -3.595222 -0.383532 4.905474 0.000000 0.000000 0.000000 8.930224 -23.224132 2.603125 -138.143991 43.336594 -21.214330 119.734077 9.837570 6.365697 20.791330 21.637223 48.895951 7.466190 0.854916 0.466844 0.000000 0.000000 0.000000 9.416159 -26.157229 3.244974 31.404971 5.954366 0.156273 5.115002 0.841759 0.915838 -0.874323 0.684801 -0.455806 0.000000 0.000000 0.000000 7.908060 0.908580 1.774779 6.812405 0.647782 2.227080 -2.961631 35.536344 -23.792911 0.000000 0.000000 0.000000 6.715133 1.407411 0.489228 1.237718 -5.485882 9.706068 3.618811 -0.407181 2.461271 -37.929167 19.071553 14.747355 -3.157267 -7.030217 -1.623297 0.000000 0.000000 0.000000 7.826782 1.358721 1.258999 -1.977074 -4.762585 -28.988931 2.824174 -0.064416 -2.125507 -49.844084 8.520562 -9.018431 1.604771 21.067865 -0.970442 0.000000 0.000000 0.000000 
-8.907495 128.355057 -3.078041 0.000000 0.000000 0.000000 7.123247 -21.062580 2.548426 -169.661598 -31.865199 15.962941 127.553837 -21.274330 -7.300914 54.605914 -21.555548 -6.935676 -6.311789 -1.210506 5.407485 0.000000 0.000000 0.000000 9.497163 -22.578640 2.131979 -129.254240 40.551612 -28.260490 119.041250 9.117022 6.990343 14.860256 18.349510 48.335814 4.674105 0.515091 1.331147 0.000000 0.000000 0.000000 10.127706 -25.301963 2.699919 30.906165 7.064253 -0.200835 4.816396 1.245028 0.803307 -0.364026 0.361974 0.471869 0.000000 0.000000 0.000000 8.284231 0.972379 1.588174 7.830336 -0.123837 2.333984 -2.082680 34.428060 -24.150316 0.000000 0.000000 0.000000 6.500149 1.590811 0.227361 1.223371 -5.077410 9.202770 3.395763 -1.282442 1.295146 -36.855568 16.574830 20.470132 -3.063171 -6.435669 -1.094221 0.000000 0.000000 0.000000 8.166760 1.529080 1.118384 -1.941063 -3.486395 -30.021820 1.934546 0.838005 -2.500261 -43.147804 3.723897 -16.708601 1.816175 22.366008 -1.196167 0.000000 0.000000 0.000000 
-8.778494 124.428101 -3.065636 0.000000 0.000000 0.000000 6.636937 -23.014141 1.290102 -166.558848 -31.036824 19.157465 128.709300 -21.823178 -5.928242 55.915695 -21.148327 0.276832 -7.553218 -1.804761 5.142951 0.000000 0.000000 0.000000 8.770864 -21.557694 0.592658 -118.123327 34.309635 -32.967817 118.400633 8.308093 7.376159 6.349259 13.323113 44.744132 4.379061 0.298946 2.339285 0.000000 0.000000 0.000000 9.492751 -23.230172 1.038431 29.908828 7.987450 -0.037045 4.468638 1.634830 0.592868 0.244771 0.696895 0.774419 0.000000 0.000000 0.000000 8.352474 0.980680 1.221377 8.350953 -0.633229 2.717999 -1.355829 33.007948 -23.865832 0.000000 0.000000 0.000000 6.190286 1.683553 -0.046679 1.086970 -4.348070 8.885346 2.950287 -2.541231 -0.343739 -35.102043 13.416045 24.624388 -2.620624 -5.494034 -0.409075 0.000000 0.000000 0.000000 8.295413 1.539494 0.764917 -1.369325 -1.262184 -29.328870 1.441276 2.129767 -2.767602 -37.210819 -0.438732 -21.486619 1.395924 25.936450 -1.161472 0.000000 0.000000 0.000000 
-8.733467 119.599579 -3.337654 0.000000 0.000000 0.000000 5.127197 -22.978461 -0.965394 -158.461495 -29.355371 22.436410 126.751031 -19.910191 -5.692155 53.392705 -17.879635 5.680601 -6.595305 -1.738475 3.655207 0.000000 0.000000 0.000000 7.069995 -20.530475 -1.585583 -105.856901 25.545582 -34.227222 116.687430 7.626182 7.422334 -1.614882 9.183188 39.078740 5.130535 0.085162 3.065527 0.000000 0.000000 0.000000 7.780199 -20.366574 -1.212275 28.331908 8.454099 0.664969 4.012701 1.904389 0.397834 0.547859 1.547565 0.710515 0.000000 0.000000 0.000000 8.003056 0.956314 0.842108 8.572879 -0.725615 3.233054 -0.936867 31.674435 -23.117438 0.000000 0.000000 0.000000 5.627596 1.729332 -0.238681 0.810888 -3.430744 8.646717 2.321322 -3.736085 -1.638624 -33.206061 11.980653 26.816938 -1.909840 -3.731051 0.213188 0.000000 0.000000 0.000000 7.990683 1.428891 0.398033 -0.542063 1.117070 -27.126781 1.779703 2.893456 -2.614346 -33.909167 -4.151277 -22.460623 0.505702 30.162238 -1.016402 0.000000 0.000000 0.000000 
-8.540371 114.469948 -3.828251 0.000000 0.000000 0.000000 3.301574 -21.498686 -3.515230 -144.918104 -26.323991 26.157342 120.694538 -15.504569 -6.523406 48.574089 -12.593554 8.615714 -5.585130 -1.357299 1.814329 0.000000 0.000000 0.000000 4.868742 -20.016371 -3.887218 -93.310144 16.178287 -32.226380 112.292429 7.479357 6.690560 -5.562518 7.763152 34.648675 2.533067 -0.401944 3.280785 0.000000 0.000000 0.000000 5.430857 -17.757083 -3.409012 26.162830 8.198810 1.619758 3.359379 1.971752 0.281768 1.497460 2.234548 0.395634 0.000000 0.000000 0.000000 7.164103 0.921952 0.589406 8.626187 -0.544675 3.620375 -0.820026 30.484278 -22.017046 0.000000 0.000000 0.000000 4.960991 1.719918 -0.225044 0.562651 -2.195390 8.286052 1.732411 -4.135590 -2.300311 -31.122365 13.568018 26.193350 -1.256268 -1.655109 0.511974 0.000000 0.000000 0.000000 7.201137 1.276543 0.144446 0.166256 2.820752 -23.854144 1.993765 3.206330 -2.033275 -33.101354 -8.680884 -20.045961 -0.641074 33.070314 -0.929524 0.000000 0.000000 0.000000 
-8.409145 109.433632 -4.059803 0.000000 0.000000 0.000000 1.869163 -19.332406 -5.468727 -126.406475 -20.662992 28.957017 110.450852 -8.890112 -7.389404 42.693774 -6.730156 9.491278 -6.456723 -1.011636 0.844008 0.000000 0.000000 0.000000 2.999889 -19.103547 -5.664083 -79.913022 7.911834 -28.311511 104.472197 7.934959 5.336596 -4.688165 8.468664 32.466194 -4.565218 -1.227997 2.954730 0.000000 0.000000 0.000000 3.221115 -15.464870 -4.998282 23.762051 7.210772 2.490210 2.636913 1.873435 0.260027 2.077625 2.608411 0.146706 0.000000 0.000000 0.000000 5.957729 0.878607 0.505651 8.470498 -0.073822 3.764633 -0.485066 29.632912 -20.886488 0.000000 0.000000 0.000000 4.221914 1.649285 -0.065444 0.331183 -0.605839 7.595361 1.177963 -4.116781 -1.892017 -28.070285 18.795292 21.292760 -0.872917 -0.152317 0.442282 0.000000 0.000000 0.000000 6.097892 1.113509 -0.000296 0.652191 3.383267 -19.971482 2.053183 2.529594 -1.695388 -33.021639 -14.869786 -14.225315 -1.710211 33.475536 -1.055267 0.000000 0.000000 0.000000 
-8.391385 104.570076 -4.604164 0.000000 0.000000 0.000000 0.463507 -17.179362 -6.435246 -105.449071 -12.842888 29.109013 97.621093 -1.761436 -5.985180 36.098748 -2.578964 8.625515 -8.419538 -0.971323 1.031755 0.000000 0.000000 0.000000 1.650811 -17.182497 -6.471427 -66.252616 1.634937 -23.384529 94.035333 8.256676 4.161723 -2.403676 8.982831 29.513159 -10.944131 -2.065948 2.646462 0.000000 0.000000 0.000000 1.417352 -13.656888 -5.901503 21.631638 5.661705 2.887991 2.022533 1.628731 0.273891 2.075808 2.468572 0.507052 0.000000 0.000000 0.000000 4.651616 0.825861 0.482346 7.874039 0.491628 3.565556 0.172414 29.102968 -19.793140 0.000000 0.000000 0.000000 3.498070 1.519959 0.061259 0.139139 1.150079 6.441687 0.457601 -3.698721 -1.009059 -23.301163 25.777598 10.732684 -0.725432 0.398128 0.116953 0.000000 0.000000 0.000000 4.907441 0.954661 -0.070548 0.914225 2.698581 -16.212668 2.189741 1.790226 -1.516002 -30.698528 -22.739595 -4.435695 -2.281232 31.691668 -1.520505 0.000000 0.000000 0.000000 
-8.292554 99.395317 -5.173214 0.000000 0.000000 0.000000 -0.627994 -15.383376 -6.499361 -85.264257 -5.380900 25.575500 84.623216 3.812959 -1.936394 27.739145 -1.204558 6.041757 -9.567531 -1.210153 1.757130 0.000000 0.000000 0.000000 0.386282 -14.779518 -6.626325 -53.728976 -2.132007 -18.324588 82.735673 7.590588 3.814457 -2.916720 7.277792 23.361470 -11.835457 -2.549720 2.913257 0.000000 0.000000 0.000000 0.342812 -12.151434 -6.128788 20.369793 3.861833 2.657245 1.601990 1.320279 0.205384 2.039276 2.072456 1.015838 0.000000 0.000000 0.000000 3.514356 0.741114 0.369848 6.479493 1.076832 3.174378 1.063243 28.771417 -18.757742 0.000000 0.000000 0.000000 3.013308 1.276408 0.022235 0.032270 2.965966 5.099944 -0.061302 -3.146030 -0.360886 -16.203861 31.007071 -5.393683 -0.946656 -0.589561 -0.357224 0.000000 0.000000 0.000000 4.018728 0.785454 -0.182984 1.045007 1.255936 -12.949482 2.006187 1.671581 -1.891162 -22.923684 -30.098608 10.684276 -2.291385 29.977376 -2.049106 0.000000 0.000000 0.000000 
